<svg width="448" height="214" xmlns="http://www.w3.org/2000/svg" xmlns:svg="http://www.w3.org/2000/svg">
 <g>
  <g id="svg_1">
   <g id="svg_2">
    <path id="svg_3" d="m441.316667,74.766667c-1,1.7 -1.9,3.4 -2.9,5.1c-1.3,2.2 -3.4,1.8 -5.4,1.5c-3.7,-0.5 -6.5,-2.7 -9.3,-4.9c-2,-1.6 -3.9,-3.5 -5.9,-5.1c-0.5,-0.4 -1.2,-0.6 -1.9,-0.6c-1.8,0.1 -3.6,0.3 -5.4,0.6c-0.6,0.1 -1.1,0.5 -1.6,0.9c-0.4,0.3 -0.7,0.8 -1,1.3c-1.6,2.5 -3.8,3.5 -6.7,3.2c-4.6,-0.5 -8.9,1.1 -13.4,1.5c-2.8,0.3 -4.9,1.4 -6.2,3.8c-0.7,1.3 -1.5,2.7 -2,4.1c-1.1,3.6 -2.1,7.2 -3.1,10.8c-0.9,3.5 -1.2,7 -1.1,10.6c0.1,2.3 -0.2,4.6 -0.2,6.9c0,1.9 0.2,3.9 0.5,5.7c0.1,0.8 0.9,1.5 1.4,2.2c4.8,6.4 9.8,12.8 14.5,19.3c2.2,3 3.8,6.4 5.8,9.7c3.1,5.1 6.3,10.3 9.5,15.4c2.1,3.3 4.3,6.6 6.5,9.9c0.1,0.2 0.3,0.4 0.4,0.6c2.9,2.8 3.6,6.4 4.3,10.2c0.5,2.9 1.2,5.7 1.5,8.5c0.3,2.4 0.5,5 0.2,7.4c-0.5,3.7 -2.7,6.7 -6.3,8c-3.2,1.1 -6.7,1.4 -10,0.6c-2.3,-0.5 -3.6,-2.4 -4.9,-4.1c-0.6,-0.7 -1,-1.5 -1.5,-2.3c-1,-1.6 -1.6,-3.3 -1.5,-5.3c0.1,-3.1 0,-6.3 0.1,-9.4c0,-1.6 -0.3,-3 -1.4,-4.3c-1.3,-1.5 -2.3,-3.3 -3.5,-5c-2.3,-3.5 -5.2,-6.3 -8.6,-8.8c-4.3,-3.1 -8.3,-6.7 -12.3,-10.2c-7.7,-6.8 -15.4,-13.6 -23,-20.5c-4.1,-3.7 -8.2,-7.4 -12.3,-11.1c-0.4,-0.3 -0.8,-0.6 -1.4,-1.1c-0.4,1.9 -0.7,3.5 -1,5.2c-0.9,4.8 -1.8,9.6 -2.7,14.4c-0.7,3.9 -1.4,7.7 -2.3,11.5c-1.2,5 -2.6,10 -4,14.9c-0.3,0.9 -0.7,1.8 -1.2,2.6c-1.3,2 -1.7,4.2 -1.9,6.5c-0.3,3.5 0.2,6.9 0.9,10.3c0.2,0.9 0.6,1.6 1.6,1.9c3.4,1.3 6.7,2.6 10,4c2.1,0.9 4.2,2 5,4.5c1,2.6 0,5.1 -2.6,6.2c-1.7,0.7 -3.5,1.6 -5.2,1.6l-12.7,0c-2.9,0 -5.7,-0.5 -8.6,-0.8c-1.5,-0.2 -2.9,-0.6 -4.4,-0.8c-0.9,-0.1 -1.2,-0.6 -1.2,-1.4c-0.1,-5.2 -1.8,-9.9 -3.8,-14.7c-1.6,-4 -2,-8.1 -0.9,-12.3c0.5,-1.8 1,-3.6 1.4,-5.4c0.2,-0.8 0.2,-1.6 0.1,-2.3c-0.6,-5 -1.1,-9.9 -1.8,-14.9c-0.8,-6.3 -1.6,-12.6 -2.5,-18.9c-0.6,-4.4 -1.1,-8.8 -1.6,-13.2c-0.3,-2.4 -0.2,-2.3 -2.6,-2.9c-3.2,-0.8 -6.5,-1.7 -9.7,-2.5c-3.3,-0.8 -6.7,-1.2 -10.2,-0.4c-7.5,1.6 -15,3.1 -22.4,4.6c-1.3,0.3 -2.5,0.6 -3.8,0.6c-1.7,0 -3.5,-0.2 -5.1,-0.5c-3.7,-0.7 -7.3,-1.4 -10.9,-2.2c-4.9,-1.2 -9.8,-2.6 -14.7,-3.9c-6.1,-1.6 -12.2,-3.3 -18.3,-4.9c-2,-0.5 -2,-0.5 -2.9,1.3c-2.2,4.7 -3.4,9.7 -4.3,14.8c-0.7,4 -1.6,7.9 -2.5,11.9c-0.8,3.5 -1.4,7 -2.3,10.5c-0.7,2.7 -1.8,5.3 -2.5,8c-1,4 -1.8,8.1 -2.8,12c-0.8,3 -0.4,5.6 1.2,8.3c2.5,4.2 4.7,8.7 7.3,12.9c2.1,3.3 5.4,4.7 9.2,5c3,0.2 5.9,0.2 8.9,0.4c3.6,0.2 7.1,5.1 4.8,9.4c-0.8,1.4 -2.2,2.1 -3.7,2.1l-24.1,0c-0.5,0 -1,-0.1 -1.5,-0.1c-1.7,-0.2 -3,-1 -4.1,-2.2c-1.8,-2 -3.7,-3.8 -5.4,-5.8c-6.3,-7.6 -12.5,-15.2 -18.7,-22.8c-1.2,-1.5 -2.2,-3.1 -3.4,-4.6c-3.1,-4.1 -2,-8 1.6,-10.9c0.6,-0.5 1.3,-1 2.1,-1.3c0.9,-0.4 1.2,-1 1.1,-1.9c-0.2,-1.7 -0.3,-3.5 -0.4,-5.2c-0.1,-2.3 -0.1,-4.6 -0.3,-6.8c-0.4,-3.2 -1,-6.4 -1.6,-9.6c-0.6,-3 -1.3,-6.1 -2,-9.1c-0.9,-3.6 -1.9,-7.2 -2.9,-10.7c-0.1,-0.3 -0.2,-0.5 -0.5,-0.9c-1,0.7 -1.9,1.4 -2.8,2.2c-4.7,3.9 -9.4,7.7 -14.1,11.6c-5.1,4.2 -10.2,8.4 -15.2,12.7c-5,4.3 -9.8,8.7 -14.9,12.9c-3.7,3 -5.6,7 -6.8,11.4c-0.9,3.3 -1.8,6.5 -2.5,9.8c-0.6,2.6 -1,5.3 -1.5,7.9c-0.5,2.6 -0.8,5.2 -1.3,7.8c-0.2,1 0.2,1.5 1.1,1.5c4.2,0 6.5,2.5 8.1,5.9c0.5,1 0.7,2.2 0.8,3.3c0.1,1.7 -0.8,2.7 -2.6,3c-6.7,1.3 -12.8,0 -18.2,-4.2c-0.4,-0.3 -0.7,-0.5 -1.1,-0.8c-1.8,-1.3 -2.7,-2.8 -2.7,-5.2c0,-12.5 -0.2,-24.9 -0.5,-37.4c-0.1,-5 1.5,-9.4 3.8,-13.7c3.8,-7.3 9.4,-13.3 15,-19.3c2,-2.2 3.5,-5 5.1,-7.6c2.9,-4.8 5.1,-10 7,-15.2c1.3,-3.6 2.3,-7.3 3.2,-11.1c1.2,-5.6 2.2,-11.3 3.1,-16.9c0.6,-3.9 0.9,-7.9 1.5,-11.8c0.4,-2.7 0.8,-5.5 1.3,-8.2c0.5,-3 0.9,-6 1.4,-8.9c0.1,-0.6 0.2,-1.1 0.4,-1.7c-0.1,-0.1 -0.2,-0.2 -0.3,-0.3c-1.1,1 -2.2,1.9 -3.2,2.9c-3.6,3.8 -6,8.4 -7.9,13.3c-2,5 -3.5,10.2 -5.6,15.2c-2,4.7 -4.2,9.3 -6.6,13.8c-1.9,3.5 -4.2,6.9 -6.6,10.2c-2.2,3 -4.7,5.9 -7.4,8.4c-4.5,4.2 -9.6,7.5 -15.2,10c-7.3,3.2 -14.8,4.8 -22.8,3.9c-4.6,-0.5 -8.8,-2.3 -12.9,-4.6c-6.6,-3.7 -12.4,-8.2 -17.2,-14.1c-3.5,-4.4 -6,-9.2 -7.4,-14.7c-0.1,-0.4 -0.4,-0.7 -0.4,-1c0,-1 0,-2 0,-3c1,-0.7 1.3,-1.4 1.9,-2.1c2.7,-3.2 6.1,-2.5 8.8,-0.5c2.9,2.2 4.9,5.2 6.1,8.5c1.2,3.3 3.4,5.7 5.9,8c3,2.8 6.6,4.9 10.5,6.2c4.7,1.6 9.6,2 14.5,0.5c2.9,-0.9 5.3,-2.5 7.7,-4.1c4.4,-2.8 8.3,-6.3 11.3,-10.6c2.4,-3.6 4.6,-7.5 6.5,-11.4c1.6,-3.3 2.8,-6.9 4.1,-10.4c1.7,-4.6 3.2,-9.2 5.2,-13.7c2.1,-4.8 4.5,-9.4 6.8,-14c2.2,-4.2 5,-7.9 8.2,-11.4c3,-3.3 6.6,-5.8 10.9,-7.1c4.9,-1.5 9.7,-3.1 14.6,-4.2c6.2,-1.3 12.5,-2.1 18.8,-3c3.3,-0.5 6.6,-0.8 10,-1.2c2.1,-0.2 4.2,-0.3 6.2,-0.5c3.6,-0.3 7.1,-0.8 10.7,-1.1c3.1,-0.3 6.3,-0.5 9.4,-0.7c17,-0.9 33.9,-0.3 50.9,0.1c5.8,0.1 11.7,0.6 17.4,1.3c5.9,0.7 11.6,1.9 17.5,3c2.2,0.4 4.4,0.7 6.5,1.2c9.5,2.5 19,1.8 28.5,0.7c3.3,-0.4 6.5,-1 9.7,-1.9c2,-0.5 3.8,-1.7 5.7,-2.6c3.3,-1.6 6.7,-3 9.9,-4.7c3,-1.6 6,-2.2 9.3,-2c0.7,0.1 1.5,0.3 2.2,0.3c2.5,-0.1 4.9,-0.2 7.4,-0.5c4.6,-0.6 9.2,-1.4 13.7,-2.1c4.7,-0.8 9.4,-1.7 14.2,-2.4c5.3,-0.8 10.6,-1.3 15.9,-2.1c4.4,-0.7 8.8,-1.1 13.2,-0.8c3.6,0.2 7.2,0.7 10.3,2.6c0.6,0.4 1.2,0.3 1.6,-0.2c1.3,-1.5 2.6,-3.3 3.9,-4.8c0.5,-0.5 1.1,-1.6 1.7,-1.6c1.7,0 3.3,0 5,0c2.1,1 2.8,3 3,5.1c0.2,1.9 0.2,3.9 0.5,5.8c0.2,0.8 0.9,1.6 1.5,2.3c1.4,1.8 2.9,3.5 4.1,5.4c2.4,3.6 4.7,7.3 7.1,10.9c1.7,2.6 2.1,5.5 2.4,8.4c0.3,2.4 0.3,4.8 0.5,7.2c0.3,2.9 1.6,5.4 2.9,7.9c0.7,1.3 1.3,2.5 2.3,3.8c0,3.1 0,6.3 0,9.4c-4,2.2 -4.4,5.6 -6.1,8.5z" fill="#ef8c2a"/>
    <g id="svg_4">
     <path id="svg_5" d="m91.116667,131.166667c-2.2,2.4 -4.5,4.8 -6.6,7.3c0.6,0.3 1.2,0.6 1.8,0.8c4.7,2.2 15.6,8.4 24.9,11.7c1.1,-1 2.2,-1.9 3.3,-2.8c1.1,-0.9 2.2,-1.9 3.3,-2.8c-7.8,-5.5 -20.3,-12 -25.8,-15.1c-0.4,0.3 -0.7,0.6 -0.9,0.9z" fill="#000000"/>
     <path id="svg_6" d="m39.016667,111.166667c-1.8,-0.2 -3.5,-0.6 -5.3,-1.2c-3.9,-1.3 -7.5,-3.4 -10.5,-6.2c-2.2,-2 -4.2,-4.2 -5.5,-7c-1.2,-1.7 -3,-3.8 -6,-7c-1.5,-1.6 -2.9,-3 -4.3,-4.2c-1.7,-0.3 -3.5,0.3 -5.1,2.2c-0.6,0.7 -0.9,1.4 -2,2.1c0,1 0,2 0,3c0,0.3 0.3,0.7 0.4,1c1.4,5.4 4,10.3 7.5,14.7c4.7,5.9 10.6,10.4 17.2,14.1c0.5,0.3 1.1,0.6 1.6,0.9c7,0.9 14.7,0.5 20.1,1c2.5,0.2 4.9,0.7 7.3,1.2c2.2,-0.7 4.4,-1.5 6.6,-2.4c2.9,-1.3 5.7,-2.8 8.3,-4.5c-4.4,-1.5 -9,-2.7 -13.8,-3.8c-3.5,-1 -11.4,-1.3 -16.5,-3.9z" fill="#000000"/>
     <path id="svg_7" d="m90.516667,94.366667c1.9,-3.6 3.7,-7.3 5.4,-11.1c-1.4,-1.1 -2.9,-2.1 -4.5,-2.9c-4.5,-2.3 -9.2,-4.1 -13.7,-6.3c-1.2,3.1 -2.2,6.3 -3.6,9.3c4.5,2.4 8.9,4.8 12.8,7.9c1.1,1.1 2.4,2.1 3.6,3.1z" fill="#000000"/>
     <path id="svg_8" d="m96.116667,123.566667c-1,1.7 -2,3.4 -3.1,5c7.9,5.3 16.2,9.4 24.3,8.9c-3.8,-2.7 -8.5,-11.7 -12.6,-15.8c-1.7,-1.6 -3.4,-3.3 -5.1,-4.9c-1,2.4 -2.2,4.6 -3.5,6.8z" fill="#000000"/>
     <path id="svg_9" d="m106.816667,94.966667c-0.2,0.8 -0.3,1.5 -0.5,2.3c-0.6,2.6 -1.3,5.2 -2.1,7.8c2.4,1.7 4.9,3.2 7.3,4.4c11.6,5.9 9.5,1.3 2.1,-6.3c-2.4,-2.5 -4.6,-5.3 -6.8,-8.2z" fill="#000000"/>
     <path id="svg_10" d="m76.416667,113.266667c2.7,-2.6 5.2,-5.5 7.4,-8.4c0.3,-0.4 0.6,-0.8 0.9,-1.2c-3.1,-2.6 -6.3,-5.1 -9.2,-7.5c-1.9,-1.5 -3.8,-3 -5.7,-4.4c-0.8,1.3 -1.6,2.6 -2.4,3.9c-2.2,3.3 -5,6 -8.1,8.4c3.9,2.4 7.9,4.9 11.8,7.7c1.2,0.9 2.5,1.9 3.9,2.9c0.3,-0.5 0.9,-0.9 1.4,-1.4z" fill="#000000"/>
     <path id="svg_11" d="m199.616667,86.466667c-15.9,-11.3 -26.9,-27.4 -36.5,-45c-4.6,-8.3 -7.2,-14.1 -15.7,-20.1c-0.6,-0.4 -1.2,-0.8 -1.9,-1.2c-1,0.1 -2.1,0.3 -3.1,0.4c-6.3,0.9 -12.6,1.7 -18.8,3c-2.2,0.5 -4.4,1.1 -6.6,1.7c3,2 6.1,3.9 9.3,5.6c9.9,5.4 16.1,8.8 23.1,16.9c3.5,4 14.8,9.1 0.8,8.5c-6.5,-0.3 -20.2,-10.2 -25.6,-13.6c-6.1,-3.9 -12.9,-9.2 -18.5,-13.8c-3,1.4 -5.6,3.5 -8,6c-1.2,1.3 -2.4,2.7 -3.5,4.1c2,1.5 3.9,3 5.9,4.4c3.9,2.8 7.9,5.1 12,7.2c0.4,-0.4 0.9,-0.8 1.3,-1.2c0.1,0.1 0.2,0.2 0.3,0.3c-0.1,0.5 -0.2,1 -0.3,1.5c13,6.7 26.4,11.7 37.7,22.7c13.1,12.9 27.6,21 43.2,30.3c7.7,4.6 13.2,9.6 20,15.5c1.2,1.1 2.5,2 3.7,3c3.8,1 7.5,2 11.3,2.9c3.6,0.9 7.2,1.6 10.8,2.2c-0.9,-1.5 -1.6,-2.6 -1.8,-3c-10.3,-14.2 -24.5,-27.9 -39.1,-38.3z" fill="#000000"/>
     <path id="svg_12" d="m332.916667,201.366667c-3.3,-1.4 -6.6,-2.8 -10,-4c-1,-0.4 -1.4,-1 -1.6,-1.9c-0.8,-3.4 -1.2,-6.9 -0.9,-10.3c0.2,-2.3 0.6,-4.5 1.9,-6.5c0.5,-0.8 1,-1.7 1.2,-2.6c0.1,-0.5 0.3,-0.9 0.4,-1.4c-0.7,-2 -1.4,-4.1 -2.3,-5.9c-1.6,-3.3 -5.4,-17.8 -12.6,-12.8c1.5,3.4 1.9,7 1.4,10.7c0.2,0.7 0.3,1.1 0,0c2.2,9.7 0.7,20.1 4.3,29.9c2.1,5.6 4.7,12.2 7.5,17.2l8,0c1.8,0 3.5,-0.9 5.2,-1.6c0.9,-0.4 1.7,-0.9 2.2,-1.7c-1.5,-3 -3.2,-5.9 -4.2,-8.9c-0.3,-0.2 -0.4,-0.2 -0.5,-0.2z" fill="#000000"/>
     <path id="svg_13" d="m409.516667,187.066667c-7.4,-8.8 -15,-16.6 -24.1,-24.9c-3,-2.7 -7.9,-6.8 -11.8,-10c-2.4,-2 -13.7,-8.4 -14.2,-11.1c0.3,1.5 -0.3,-0.2 0,0c-10.5,-7.6 -18.5,-19.8 -30.5,-26.4c-10.6,-5.8 -23.5,-7.1 -34.5,-11.9c-9.4,-4.1 -16,-11.3 -24.8,-16.3c-17.9,-10 -31,-20.8 -50.8,-28c-10.5,-3.8 -20.3,-7.7 -30,-13c-6.1,-3.3 -19,-11.3 -16,-2.2c0.8,2.3 9.7,9.6 11.5,11.6c2.6,3 5.1,6.3 7.6,8.9c4.8,4.9 9.7,8.7 15.4,12.7c7,4.9 16.3,9.1 22.1,15.4c3.4,3.7 5,10 8.4,13.9c5.5,6.1 10,8.1 13.8,16.2c0.9,1.9 1.7,3.6 2.4,5.1c5.9,-1.2 11.8,-2.3 17.7,-3.6c1,-0.2 1.9,-0.3 2.9,-0.4c-8.2,-9.3 -18.5,-22.2 -13.9,-23.7c5.1,1.9 5.8,7 9.8,10c3.2,2.4 6.8,2.2 10.3,3.7c6.4,2.7 13.4,6.2 19.8,9.5c10.4,5.3 21.2,10.4 31.1,16.6c0.2,-1.3 0.5,-2.6 0.7,-3.8c0.3,-1.6 0.6,-3.3 1,-5.2c0.6,0.5 1,0.8 1.4,1.1c4.1,3.7 8.1,7.5 12.3,11.1c7.7,6.8 15.3,13.7 23,20.5c4,3.5 8,7.1 12.3,10.2c3.4,2.5 6.3,5.3 8.6,8.8c0.3,0.5 0.7,1 1,1.6c5.1,4 10,8.1 14.9,12.2c6.2,5.3 8.4,7.9 10.8,13.2c1.2,-1.4 2,-3.2 2.3,-5.2c0.1,-1.1 0.2,-2.2 0.1,-3.3c-3.5,-4.7 -6.9,-9 -10.6,-13.3z" fill="#000000"/>
     <path id="svg_14" d="m298.316667,161.166667c0.6,4.6 1.1,9.2 1.6,13.7c1,0.1 1.9,0 2.7,-0.4c-2.1,-7.4 -2.9,-17.1 -5.5,-23.5c-0.1,-0.2 -0.2,-0.4 -0.3,-0.6c0.5,3.6 1,7.2 1.5,10.8z" fill="#000000"/>
     <path id="svg_15" d="m82.016667,141.466667c-1.9,2.4 -3.6,4.9 -5.1,7.5c7.6,5.1 15.5,10.6 16.4,11.7c1,1.3 2,2.5 3,3.8c0.9,-1.3 1.9,-2.4 3.2,-3.5c3.1,-2.6 6.1,-5.3 9.2,-7.9c-2.4,-1.3 -4.9,-2.4 -7.4,-3.4c-1.9,-0.8 -10.6,-4.9 -19.3,-8.2z" fill="#000000"/>
     <path id="svg_16" d="m299.416667,196.066667c1.9,4.7 3.6,9.5 3.8,14.7c0,0.8 0.4,1.3 1.2,1.5c1.5,0.2 2.9,0.5 4.4,0.7c2.8,0.3 5.7,0.8 8.6,0.8l0.2,0c-3.3,-5 -11.7,-16.8 -19.7,-26c-0.1,2.7 0.4,5.6 1.5,8.3z" fill="#000000"/>
     <path id="svg_17" d="m395.716667,200.966667c0.1,1.7 0.6,3.2 1.5,4.7c0.5,0.8 0.9,1.6 1.5,2.3c1.3,1.7 2.7,3.6 4.9,4.1c1.3,0.3 2.5,0.4 3.8,0.4c-3.5,-4.1 -7.6,-8 -11.7,-11.5z" fill="#000000"/>
     <path id="svg_18" d="m315.516667,149.366667c5.7,4.1 9.2,7 12,11.6c0.9,-3.8 1.6,-7.6 2.3,-11.5c0,-0.1 0.1,-0.3 0.1,-0.4c-4.3,-2.2 -9.4,-3.4 -13.3,-5.9c-7,-4.6 -10.4,-10.3 -19.7,-10.5c-0.6,4.8 14.7,14 18.6,16.7z" fill="#000000"/>
     <path id="svg_19" d="m120.216667,125.866667c-1.2,2.1 2.6,6.8 7.1,11.4c0.7,-0.6 1.5,-1.2 2.2,-1.9c1.7,-1.4 3.3,-2.7 5,-4.1c-5.2,-4.2 -10.6,-7.2 -14.3,-5.4z" fill="#000000"/>
     <path id="svg_20" d="m190.616667,126.666667c0.7,-2.8 1.6,-5.6 2.9,-8.3c0.9,-1.9 0.8,-1.9 2.9,-1.3c0.3,0.1 0.6,0.2 0.9,0.3c-7.3,-6.4 -16.3,-12.9 -20.6,-10.6c0.4,3.1 9.6,13.1 11.8,16.8c0.7,0.9 1.4,2 2.1,3.1z" fill="#000000"/>
     <path id="svg_21" d="m193.616667,201.166667c-2.5,-0.7 -4.6,-2.1 -6,-4.4c-2.6,-4.2 -4.8,-8.6 -7.3,-12.9c-1.6,-2.6 -2,-5.3 -1.2,-8.3c0.5,-1.7 0.9,-3.5 1.2,-5.2c-6.8,-8.6 -18.3,-14.9 -27.3,-22c0.2,1.2 0.4,2.4 0.5,3.6c0.3,2.2 0.2,4.5 0.3,6.8c0.1,1.7 0.3,3.5 0.4,5.2c0.1,0.9 -0.2,1.6 -1.1,1.9c-0.7,0.3 -1.4,0.8 -2.1,1.3c-0.3,0.2 -0.6,0.5 -0.8,0.7c0.9,1.2 1.8,2.5 2.7,3.7c10.6,13.4 16.7,24.2 25.7,38.3c0.8,1.2 1.4,2.5 1.9,3.8c0.2,0 0.3,-0.2 0.5,-0.2c0.5,0 1,0.1 1.5,0.1l16.3,0c-1.1,-2 -2.1,-4.4 -2.9,-6.6c-0.8,-1.9 -1.6,-3.7 -2.3,-5.8z" fill="#000000"/>
     <path id="svg_22" d="m100.316667,71.666667c0.7,-2 1.4,-4 2.2,-6c1.4,-3.6 3.1,-7 5.3,-10.1c-6.4,-2.6 -12.7,-5.4 -18.2,-9c-2.3,4.5 -4.6,9 -6.7,13.6c-0.1,0.3 -0.2,0.6 -0.4,0.9c1,0.7 2,1.5 3.1,2.2c4.5,3 9.7,5.6 14.7,8.4z" fill="#000000"/>
     <path id="svg_23" d="m205.716667,202.166667c-0.3,0 -0.6,0 -1,-0.1c0.6,2.2 1.2,4.5 1.8,6.8c0.2,0.7 0.3,2.7 0.5,5.2c1.4,-0.1 2.7,-1 3.4,-2.3c2.5,-4.2 -1,-9.4 -4.7,-9.6z" fill="#000000"/>
     <path id="svg_24" d="m172.616667,150.266667c3.2,3.3 6.7,6.9 10.1,10.6c0.6,-1.8 1.3,-3.5 1.7,-5.3c0.9,-3.5 1.6,-7 2.3,-10.5c0.5,-2.3 1,-4.5 1.5,-6.8c-7.6,-7.6 -15.8,-14.9 -22.1,-23c-10.2,-12.9 -10,-30.1 -22.4,-41.2c-8.4,-7.6 -19.8,-12 -31,-16.5c-0.1,0.9 -0.3,1.9 -0.4,2.8c-0.4,2.7 -0.9,5.5 -1.3,8.2c-0.4,3.1 -0.7,6.2 -1.1,9.2c1.3,1 2.5,2 3.5,3.2c1.2,1.3 3.1,7.7 5.1,10c3.2,3.6 9.2,5.7 12.6,9.8c3.2,3.9 6.8,11 8.1,16.1c1,3.7 1.7,6.4 2.5,8.4c0.7,-0.5 1.3,-1.1 2,-1.6c0.9,-0.7 1.9,-1.4 2.8,-2.2c0.2,0.4 0.4,0.7 0.5,0.9c1,3.6 2,7.1 2.9,10.7c0.1,0.2 0.1,0.5 0.2,0.7c1.2,0.8 2.7,1.6 4.3,2.6c7.1,4.5 12.7,8.2 18.2,13.9z" fill="#000000"/>
     <path id="svg_25" d="m437.516667,33.566667c0,-1.8 0.2,-3.9 0.4,-6c-1.8,-2.8 -3.6,-5.6 -5.4,-8.3c-1.3,-1.9 -2.8,-3.6 -4.1,-5.3c-0.6,-0.7 -1.3,-1.5 -1.5,-2.3c-0.3,-1.9 -0.3,-4 -0.5,-5.9c-0.2,-2.1 -0.9,-4.1 -3,-5.1c-1.7,0 -3.3,0 -5,0c-0.6,0 -1.2,1 -1.7,1.6c-1.3,1.5 -2.6,3.1 -3.9,4.7c-0.5,0.5 -1,0.7 -1.6,0.3c-1.6,-1 -3.3,-1.6 -5,-1.9c-0.1,0.7 -0.3,1.3 -0.4,2c5.4,15.6 23.2,14.9 31.7,26.2z" fill="#000000"/>
     <path id="svg_26" d="m429.016667,61.366667c-3.2,-3.2 -7.3,-6.5 -12.2,-11c-7.6,-7.1 -13.5,-13.8 -22.5,-19.5c-7.9,-5 -22.6,-9.9 -28,-17.4c1.2,0.9 1.4,1 -0.3,-0.3c-0.1,0 -0.2,-0.1 -0.3,-0.1c0,0 0.1,0 0.1,0.1c-0.3,-0.1 -0.6,-0.2 -0.9,-0.3c0.4,0.1 0.6,0.1 0.8,0.2c-1.1,-0.9 -2.7,-2.2 -4.6,-3.6c-1.2,0.2 -2.4,0.4 -3.6,0.6c-4.6,0.7 -9.1,1.5 -13.7,2.1c-1.8,0.2 -3.5,0.3 -5.3,0.4c6.3,6 18.8,11.8 23.6,14.1c11.6,5.7 19.6,15 27.9,23.9c8.7,9.5 19,13.3 29.2,20.5c3.1,2.2 7.1,6.6 11.4,9.8c0.8,0.3 1.6,0.5 2.5,0.6c2,0.3 4.1,0.6 5.4,-1.5c1,-1.7 1.9,-3.4 2.9,-5.1c0.4,-0.7 0.8,-1.4 1.2,-2.1c-0.9,-1.1 -2,-2.3 -3.1,-3.6c-5.4,-5.9 -8.6,-7.8 -10.5,-7.8zm-63.2,-48.3c0.1,0.1 0.1,0.1 0.2,0.1c-0.3,0.2 -2.6,-0.6 -0.2,-0.1z" fill="#000000"/>
     <path id="svg_27" d="m445.216667,53.666667c-1.3,-2.5 -2.6,-5 -2.8,-7.9c0,0 0,-0.1 0,-0.1c-4.4,-2.9 -8.4,-5.6 -11.6,-7.4c-0.6,-0.4 -1.1,-0.8 -1.8,-1.2c-14.1,-8.1 -19.1,-21 -32.9,-28.2c-1.5,-1.2 -3.1,-2.5 -4.7,-3.9c-1.3,0.1 -2.6,0.3 -3.9,0.5c-5.2,0.8 -10.5,1.3 -15.7,2.1c0.6,0.7 2.6,2.6 5.9,4.4c9.2,6.9 25.7,19.4 27.6,21.2c5.7,5.5 12.6,11.5 19.3,16.1c2.1,1.4 3.6,2.5 4.9,3.4c0.8,1.7 1.4,2.9 1.4,2.9s2.5,2.5 5.9,5.5c0.3,0.4 0.5,0.8 0.8,1.2c0,-0.2 0,-0.4 0,-0.6c2.5,2.2 5.5,4.5 8.3,6.4c0.5,-0.4 1,-0.8 1.6,-1.2c0,-3.1 0,-6.3 0,-9.4c-1.1,-1.3 -1.6,-2.5 -2.3,-3.8z" fill="#000000"/>
     <path id="svg_28" d="m88.516667,199.466667c-0.9,0 -1.3,-0.5 -1.1,-1.5c0.5,-2.6 0.9,-5.2 1.3,-7.8c0.5,-2.6 0.9,-5.3 1.5,-7.9c0.4,-1.7 0.8,-3.4 1.2,-5c-0.6,-2.7 -1.3,-5.4 -2.6,-7.6c-3.6,-6.2 -8.7,-11.3 -14.3,-15.7c-1.4,3.2 -2.2,6.6 -2.2,10.3c0.3,12.5 0.5,24.9 0.5,37.4c0,2.4 0.9,3.9 2.7,5.2c0.4,0.3 0.7,0.5 1.1,0.8c5.4,4.3 11.5,5.5 18.2,4.2c1.8,-0.3 2.8,-1.3 2.6,-3c-0.1,-1.1 -0.3,-2.3 -0.8,-3.3c-1.6,-3.6 -3.9,-6.2 -8.1,-6.1z" fill="#000000"/>
     <path id="svg_29" d="m247.816667,62.066667c15.2,8.1 28.6,17.2 43.4,26.6c9.5,6 28.5,22.7 41.1,17.8c0.7,-7.9 -16.6,-12.9 -22,-16.1c-7.2,-4.3 -10.9,-8.6 -16.5,-14.5c-8.6,-9.1 -20.9,-15.6 -30.5,-21.9c-10.4,-6.9 -22,-9.1 -32.3,-16.5c-3.8,-2.7 -7.7,-4.9 -10.6,-8.2c-2.5,-2.9 -4.7,-8.2 -7.6,-12.4c-6.6,-0.1 -13.2,-0.2 -19.8,-0.1c2.4,7 4,14.1 9.5,20.1c10.3,11.1 31.6,18 45.3,25.2z" fill="#000000"/>
     <path id="svg_30" d="m187.416667,40.466667c1.4,1.4 7.6,10.7 9.7,4.4c1.6,-4.7 -3.8,-7.4 -6.1,-10.9c0.3,0.4 0.4,0.7 0,0c-1.1,-1.8 -0.5,-0.8 0,0c-0.6,-1 -1.2,-2.2 -1.7,-3.4c0.2,-0.4 0.3,-0.9 0.3,-1.4c0.1,-4.5 -0.5,-8.6 -1.8,-12.3c-3.1,0.1 -6.1,0.2 -9.2,0.3c-3.1,0.2 -6.3,0.4 -9.4,0.7c-2.7,0.2 -5.3,0.5 -7.9,0.8c4.4,2.9 8.8,5.7 13.3,8.5c4,4.5 8.3,8.9 12.8,13.3z" fill="#000000"/>
     <path id="svg_31" d="m226.216667,24.666667c6.2,5.6 11.9,8.7 18.7,13c11.9,7.5 24.5,12.5 36.9,19.1c27.2,14.5 46,37.6 67.2,59.3c18.5,19 34.4,37.1 52.8,53.9c7,6.3 11.7,13.6 17,21c-0.2,-1.2 -0.5,-2.3 -0.7,-3.5c-0.6,-3.7 -1.4,-7.4 -4.3,-10.2c-0.2,-0.2 -0.3,-0.4 -0.4,-0.6c-2.2,-3.3 -4.4,-6.6 -6.5,-9.9c-3.2,-5.1 -6.3,-10.2 -9.5,-15.4c-1.9,-3.2 -3.6,-6.6 -5.8,-9.7c-4.7,-6.5 -9.6,-12.9 -14.5,-19.3c-0.5,-0.7 -1.2,-1.4 -1.4,-2.2c-0.3,-1.9 -0.5,-3.8 -0.5,-5.7c0,-2.3 0.3,-4.6 0.2,-6.9c-0.2,-3.6 0.2,-7.1 1.1,-10.6c0.9,-3.6 1.9,-7.2 3.1,-10.8c0.5,-1.4 1.2,-2.8 2,-4.1c1.3,-2.4 3.4,-3.6 6.2,-3.8c4.3,-0.4 8.6,-1.9 13,-1.5c-7.5,-9.6 -18,-20.4 -28.7,-27.3c-7.7,-4.9 -22.3,-6.6 -27.3,-15.2c6.6,0.9 28.2,16.2 34.5,12.7c1.5,-3.8 -40,-30.4 -45.2,-34.8c0,0 0,0 0,0c1.5,1.4 0.7,0.6 0,0c0,0 0,0 -0.1,0c-3.3,-0.3 -6.3,0.3 -9.3,2c-3.2,1.8 -6.6,3.2 -9.9,4.7c-1.9,0.9 -3.7,2.1 -5.7,2.6c-1.2,0.3 -2.3,0.6 -3.5,0.9c7.9,5.8 15.6,11.8 23.5,17.1c8.9,6 19.4,10.4 28.9,15.4c3.1,1.7 22.8,10.3 23,13.4c-0.1,0.4 -0.9,0.3 -2.2,0c-11.2,-2.8 -61.1,-28.4 -66.6,-32c-5,-3.2 -8.3,-6.5 -14.3,-9.3c-1.9,-0.9 -3.7,-1.9 -5.5,-2.9c-7.2,0.5 -14.4,0.5 -21.6,-1.4c-2.1,-0.6 -4.3,-0.9 -6.5,-1.2c-2.2,-0.4 -4.5,-0.8 -6.7,-1.2c1.2,0.9 2.3,1.8 3.3,2.7c7.8,7 14.6,12.2 23.3,17.5c9.1,5.5 18.7,8.6 27.2,14.8c7.8,5.8 13,12 20.7,18.3c1.2,0.9 2.3,1.8 3.5,2.7c4.8,8.4 10.7,15.9 17.1,23c-5,-3.3 -9.9,-6.7 -14.5,-10.5c-10.6,-8.6 -18,-21.1 -28.8,-28.4c-22.5,-15.2 -55.9,-22.1 -74.7,-43c-1.7,-0.1 -3.5,-0.2 -5.2,-0.2c-3.4,-0.1 -6.9,-0.1 -10.3,-0.2c2.4,2.9 4.7,5.6 7,7.7zm116.1,7.3c-2.4,0 -16.4,-10 -18.4,-13.2c-0.3,0.1 -0.5,-0.1 -0.4,-0.8c1.2,-0.6 1.6,-0.5 1.6,-0.3c6.3,0 18.5,12.5 17.2,14.3z" fill="#000000"/>
    </g>
   </g>
   <g id="svg_32">
    <path id="svg_33" d="m91.116667,131.166667c-2.2,2.4 -4.5,4.8 -6.6,7.3c0.6,0.3 1.2,0.6 1.8,0.8c4.7,2.2 15.6,8.4 24.9,11.7c1.1,-1 2.2,-1.9 3.3,-2.8c1.1,-0.9 2.2,-1.9 3.3,-2.8c-7.8,-5.5 -20.3,-12 -25.8,-15.1c-0.4,0.3 -0.7,0.6 -0.9,0.9z" fill="#000000"/>
    <path id="svg_34" d="m39.016667,111.166667c-1.8,-0.2 -3.5,-0.6 -5.3,-1.2c-3.9,-1.3 -7.5,-3.4 -10.5,-6.2c-2.2,-2 -4.2,-4.2 -5.5,-7c-1.2,-1.7 -3,-3.8 -6,-7c-1.5,-1.6 -2.9,-3 -4.3,-4.2c-1.7,-0.3 -3.5,0.3 -5.1,2.2c-0.6,0.7 -0.9,1.4 -2,2.1c0,1 0,2 0,3c0,0.3 0.3,0.7 0.4,1c1.4,5.4 4,10.3 7.5,14.7c4.7,5.9 10.6,10.4 17.2,14.1c0.5,0.3 1.1,0.6 1.6,0.9c7,0.9 14.7,0.5 20.1,1c2.5,0.2 4.9,0.7 7.3,1.2c2.2,-0.7 4.4,-1.5 6.6,-2.4c2.9,-1.3 5.7,-2.8 8.3,-4.5c-4.4,-1.5 -9,-2.7 -13.8,-3.8c-3.5,-1 -11.4,-1.3 -16.5,-3.9z" fill="#000000"/>
    <path id="svg_35" d="m90.516667,94.366667c1.9,-3.6 3.7,-7.3 5.4,-11.1c-1.4,-1.1 -2.9,-2.1 -4.5,-2.9c-4.5,-2.3 -9.2,-4.1 -13.7,-6.3c-1.2,3.1 -2.2,6.3 -3.6,9.3c4.5,2.4 8.9,4.8 12.8,7.9c1.1,1.1 2.4,2.1 3.6,3.1z" fill="#000000"/>
    <path id="svg_36" d="m96.116667,123.566667c-1,1.7 -2,3.4 -3.1,5c7.9,5.3 16.2,9.4 24.3,8.9c-3.8,-2.7 -8.5,-11.7 -12.6,-15.8c-1.7,-1.6 -3.4,-3.3 -5.1,-4.9c-1,2.4 -2.2,4.6 -3.5,6.8z" fill="#000000"/>
    <path id="svg_37" d="m106.816667,94.966667c-0.2,0.8 -0.3,1.5 -0.5,2.3c-0.6,2.6 -1.3,5.2 -2.1,7.8c2.4,1.7 4.9,3.2 7.3,4.4c11.6,5.9 9.5,1.3 2.1,-6.3c-2.4,-2.5 -4.6,-5.3 -6.8,-8.2z" fill="#000000"/>
    <path id="svg_38" d="m76.416667,113.266667c2.7,-2.6 5.2,-5.5 7.4,-8.4c0.3,-0.4 0.6,-0.8 0.9,-1.2c-3.1,-2.6 -6.3,-5.1 -9.2,-7.5c-1.9,-1.5 -3.8,-3 -5.7,-4.4c-0.8,1.3 -1.6,2.6 -2.4,3.9c-2.2,3.3 -5,6 -8.1,8.4c3.9,2.4 7.9,4.9 11.8,7.7c1.2,0.9 2.5,1.9 3.9,2.9c0.3,-0.5 0.9,-0.9 1.4,-1.4z" fill="#000000"/>
    <path id="svg_39" d="m199.616667,86.466667c-15.9,-11.3 -26.9,-27.4 -36.5,-45c-4.6,-8.3 -7.2,-14.1 -15.7,-20.1c-0.6,-0.4 -1.2,-0.8 -1.9,-1.2c-1,0.1 -2.1,0.3 -3.1,0.4c-6.3,0.9 -12.6,1.7 -18.8,3c-2.2,0.5 -4.4,1.1 -6.6,1.7c3,2 6.1,3.9 9.3,5.6c9.9,5.4 16.1,8.8 23.1,16.9c3.5,4 14.8,9.1 0.8,8.5c-6.5,-0.3 -20.2,-10.2 -25.6,-13.6c-6.1,-3.9 -12.9,-9.2 -18.5,-13.8c-3,1.4 -5.6,3.5 -8,6c-1.2,1.3 -2.4,2.7 -3.5,4.1c2,1.5 3.9,3 5.9,4.4c3.9,2.8 7.9,5.1 12,7.2c0.4,-0.4 0.9,-0.8 1.3,-1.2c0.1,0.1 0.2,0.2 0.3,0.3c-0.1,0.5 -0.2,1 -0.3,1.5c13,6.7 26.4,11.7 37.7,22.7c13.1,12.9 27.6,21 43.2,30.3c7.7,4.6 13.2,9.6 20,15.5c1.2,1.1 2.5,2 3.7,3c3.8,1 7.5,2 11.3,2.9c3.6,0.9 7.2,1.6 10.8,2.2c-0.9,-1.5 -1.6,-2.6 -1.8,-3c-10.3,-14.2 -24.5,-27.9 -39.1,-38.3z" fill="#000000"/>
    <path id="svg_40" d="m332.916667,201.366667c-3.3,-1.4 -6.6,-2.8 -10,-4c-1,-0.4 -1.4,-1 -1.6,-1.9c-0.8,-3.4 -1.2,-6.9 -0.9,-10.3c0.2,-2.3 0.6,-4.5 1.9,-6.5c0.5,-0.8 1,-1.7 1.2,-2.6c0.1,-0.5 0.3,-0.9 0.4,-1.4c-0.7,-2 -1.4,-4.1 -2.3,-5.9c-1.6,-3.3 -5.4,-17.8 -12.6,-12.8c1.5,3.4 1.9,7 1.4,10.7c0.2,0.7 0.3,1.1 0,0c2.2,9.7 0.7,20.1 4.3,29.9c2.1,5.6 4.7,12.2 7.5,17.2l8,0c1.8,0 3.5,-0.9 5.2,-1.6c0.9,-0.4 1.7,-0.9 2.2,-1.7c-1.5,-3 -3.2,-5.9 -4.2,-8.9c-0.3,-0.2 -0.4,-0.2 -0.5,-0.2z" fill="#000000"/>
    <path id="svg_41" d="m409.516667,187.066667c-7.4,-8.8 -15,-16.6 -24.1,-24.9c-3,-2.7 -7.9,-6.8 -11.8,-10c-2.4,-2 -13.7,-8.4 -14.2,-11.1c0.3,1.5 -0.3,-0.2 0,0c-10.5,-7.6 -18.5,-19.8 -30.5,-26.4c-10.6,-5.8 -23.5,-7.1 -34.5,-11.9c-9.4,-4.1 -16,-11.3 -24.8,-16.3c-17.9,-10 -31,-20.8 -50.8,-28c-10.5,-3.8 -20.3,-7.7 -30,-13c-6.1,-3.3 -19,-11.3 -16,-2.2c0.8,2.3 9.7,9.6 11.5,11.6c2.6,3 5.1,6.3 7.6,8.9c4.8,4.9 9.7,8.7 15.4,12.7c7,4.9 16.3,9.1 22.1,15.4c3.4,3.7 5,10 8.4,13.9c5.5,6.1 10,8.1 13.8,16.2c0.9,1.9 1.7,3.6 2.4,5.1c5.9,-1.2 11.8,-2.3 17.7,-3.6c1,-0.2 1.9,-0.3 2.9,-0.4c-8.2,-9.3 -18.5,-22.2 -13.9,-23.7c5.1,1.9 5.8,7 9.8,10c3.2,2.4 6.8,2.2 10.3,3.7c6.4,2.7 13.4,6.2 19.8,9.5c10.4,5.3 21.2,10.4 31.1,16.6c0.2,-1.3 0.5,-2.6 0.7,-3.8c0.3,-1.6 0.6,-3.3 1,-5.2c0.6,0.5 1,0.8 1.4,1.1c4.1,3.7 8.1,7.5 12.3,11.1c7.7,6.8 15.3,13.7 23,20.5c4,3.5 8,7.1 12.3,10.2c3.4,2.5 6.3,5.3 8.6,8.8c0.3,0.5 0.7,1 1,1.6c5.1,4 10,8.1 14.9,12.2c6.2,5.3 8.4,7.9 10.8,13.2c1.2,-1.4 2,-3.2 2.3,-5.2c0.1,-1.1 0.2,-2.2 0.1,-3.3c-3.5,-4.7 -6.9,-9 -10.6,-13.3z" fill="#000000"/>
    <path id="svg_42" d="m298.316667,161.166667c0.6,4.6 1.1,9.2 1.6,13.7c1,0.1 1.9,0 2.7,-0.4c-2.1,-7.4 -2.9,-17.1 -5.5,-23.5c-0.1,-0.2 -0.2,-0.4 -0.3,-0.6c0.5,3.6 1,7.2 1.5,10.8z" fill="#000000"/>
    <path id="svg_43" d="m82.016667,141.466667c-1.9,2.4 -3.6,4.9 -5.1,7.5c7.6,5.1 15.5,10.6 16.4,11.7c1,1.3 2,2.5 3,3.8c0.9,-1.3 1.9,-2.4 3.2,-3.5c3.1,-2.6 6.1,-5.3 9.2,-7.9c-2.4,-1.3 -4.9,-2.4 -7.4,-3.4c-1.9,-0.8 -10.6,-4.9 -19.3,-8.2z" fill="#000000"/>
    <path id="svg_44" d="m299.416667,196.066667c1.9,4.7 3.6,9.5 3.8,14.7c0,0.8 0.4,1.3 1.2,1.5c1.5,0.2 2.9,0.5 4.4,0.7c2.8,0.3 5.7,0.8 8.6,0.8l0.2,0c-3.3,-5 -11.7,-16.8 -19.7,-26c-0.1,2.7 0.4,5.6 1.5,8.3z" fill="#000000"/>
    <path id="svg_45" d="m395.716667,200.966667c0.1,1.7 0.6,3.2 1.5,4.7c0.5,0.8 0.9,1.6 1.5,2.3c1.3,1.7 2.7,3.6 4.9,4.1c1.3,0.3 2.5,0.4 3.8,0.4c-3.5,-4.1 -7.6,-8 -11.7,-11.5z" fill="#000000"/>
    <path id="svg_46" d="m315.516667,149.366667c5.7,4.1 9.2,7 12,11.6c0.9,-3.8 1.6,-7.6 2.3,-11.5c0,-0.1 0.1,-0.3 0.1,-0.4c-4.3,-2.2 -9.4,-3.4 -13.3,-5.9c-7,-4.6 -10.4,-10.3 -19.7,-10.5c-0.6,4.8 14.7,14 18.6,16.7z" fill="#000000"/>
    <path id="svg_47" d="m120.216667,125.866667c-1.2,2.1 2.6,6.8 7.1,11.4c0.7,-0.6 1.5,-1.2 2.2,-1.9c1.7,-1.4 3.3,-2.7 5,-4.1c-5.2,-4.2 -10.6,-7.2 -14.3,-5.4z" fill="#000000"/>
    <path id="svg_48" d="m190.616667,126.666667c0.7,-2.8 1.6,-5.6 2.9,-8.3c0.9,-1.9 0.8,-1.9 2.9,-1.3c0.3,0.1 0.6,0.2 0.9,0.3c-7.3,-6.4 -16.3,-12.9 -20.6,-10.6c0.4,3.1 9.6,13.1 11.8,16.8c0.7,0.9 1.4,2 2.1,3.1z" fill="#000000"/>
    <path id="svg_49" d="m193.616667,201.166667c-2.5,-0.7 -4.6,-2.1 -6,-4.4c-2.6,-4.2 -4.8,-8.6 -7.3,-12.9c-1.6,-2.6 -2,-5.3 -1.2,-8.3c0.5,-1.7 0.9,-3.5 1.2,-5.2c-6.8,-8.6 -18.3,-14.9 -27.3,-22c0.2,1.2 0.4,2.4 0.5,3.6c0.3,2.2 0.2,4.5 0.3,6.8c0.1,1.7 0.3,3.5 0.4,5.2c0.1,0.9 -0.2,1.6 -1.1,1.9c-0.7,0.3 -1.4,0.8 -2.1,1.3c-0.3,0.2 -0.6,0.5 -0.8,0.7c0.9,1.2 1.8,2.5 2.7,3.7c10.6,13.4 16.7,24.2 25.7,38.3c0.8,1.2 1.4,2.5 1.9,3.8c0.2,0 0.3,-0.2 0.5,-0.2c0.5,0 1,0.1 1.5,0.1l16.3,0c-1.1,-2 -2.1,-4.4 -2.9,-6.6c-0.8,-1.9 -1.6,-3.7 -2.3,-5.8z" fill="#000000"/>
    <path id="svg_50" d="m100.316667,71.666667c0.7,-2 1.4,-4 2.2,-6c1.4,-3.6 3.1,-7 5.3,-10.1c-6.4,-2.6 -12.7,-5.4 -18.2,-9c-2.3,4.5 -4.6,9 -6.7,13.6c-0.1,0.3 -0.2,0.6 -0.4,0.9c1,0.7 2,1.5 3.1,2.2c4.5,3 9.7,5.6 14.7,8.4z" fill="#000000"/>
    <path id="svg_51" d="m205.716667,202.166667c-0.3,0 -0.6,0 -1,-0.1c0.6,2.2 1.2,4.5 1.8,6.8c0.2,0.7 0.3,2.7 0.5,5.2c1.4,-0.1 2.7,-1 3.4,-2.3c2.5,-4.2 -1,-9.4 -4.7,-9.6z" fill="#000000"/>
    <path id="svg_52" d="m172.616667,150.266667c3.2,3.3 6.7,6.9 10.1,10.6c0.6,-1.8 1.3,-3.5 1.7,-5.3c0.9,-3.5 1.6,-7 2.3,-10.5c0.5,-2.3 1,-4.5 1.5,-6.8c-7.6,-7.6 -15.8,-14.9 -22.1,-23c-10.2,-12.9 -10,-30.1 -22.4,-41.2c-8.4,-7.6 -19.8,-12 -31,-16.5c-0.1,0.9 -0.3,1.9 -0.4,2.8c-0.4,2.7 -0.9,5.5 -1.3,8.2c-0.4,3.1 -0.7,6.2 -1.1,9.2c1.3,1 2.5,2 3.5,3.2c1.2,1.3 3.1,7.7 5.1,10c3.2,3.6 9.2,5.7 12.6,9.8c3.2,3.9 6.8,11 8.1,16.1c1,3.7 1.7,6.4 2.5,8.4c0.7,-0.5 1.3,-1.1 2,-1.6c0.9,-0.7 1.9,-1.4 2.8,-2.2c0.2,0.4 0.4,0.7 0.5,0.9c1,3.6 2,7.1 2.9,10.7c0.1,0.2 0.1,0.5 0.2,0.7c1.2,0.8 2.7,1.6 4.3,2.6c7.1,4.5 12.7,8.2 18.2,13.9z" fill="#000000"/>
    <path id="svg_53" d="m437.516667,33.566667c0,-1.8 0.2,-3.9 0.4,-6c-1.8,-2.8 -3.6,-5.6 -5.4,-8.3c-1.3,-1.9 -2.8,-3.6 -4.1,-5.3c-0.6,-0.7 -1.3,-1.5 -1.5,-2.3c-0.3,-1.9 -0.3,-4 -0.5,-5.9c-0.2,-2.1 -0.9,-4.1 -3,-5.1c-1.7,0 -3.3,0 -5,0c-0.6,0 -1.2,1 -1.7,1.6c-1.3,1.5 -2.6,3.1 -3.9,4.7c-0.5,0.5 -1,0.7 -1.6,0.3c-1.6,-1 -3.3,-1.6 -5,-1.9c-0.1,0.7 -0.3,1.3 -0.4,2c5.4,15.6 23.2,14.9 31.7,26.2z" fill="#000000"/>
    <path id="svg_54" d="m429.016667,61.366667c-3.2,-3.2 -7.3,-6.5 -12.2,-11c-7.6,-7.1 -13.5,-13.8 -22.5,-19.5c-7.9,-5 -22.6,-9.9 -28,-17.4c1.2,0.9 1.4,1 -0.3,-0.3c-0.1,0 -0.2,-0.1 -0.3,-0.1c0,0 0.1,0 0.1,0.1c-0.3,-0.1 -0.6,-0.2 -0.9,-0.3c0.4,0.1 0.6,0.1 0.8,0.2c-1.1,-0.9 -2.7,-2.2 -4.6,-3.6c-1.2,0.2 -2.4,0.4 -3.6,0.6c-4.6,0.7 -9.1,1.5 -13.7,2.1c-1.8,0.2 -3.5,0.3 -5.3,0.4c6.3,6 18.8,11.8 23.6,14.1c11.6,5.7 19.6,15 27.9,23.9c8.7,9.5 19,13.3 29.2,20.5c3.1,2.2 7.1,6.6 11.4,9.8c0.8,0.3 1.6,0.5 2.5,0.6c2,0.3 4.1,0.6 5.4,-1.5c1,-1.7 1.9,-3.4 2.9,-5.1c0.4,-0.7 0.8,-1.4 1.2,-2.1c-0.9,-1.1 -2,-2.3 -3.1,-3.6c-5.4,-5.9 -8.6,-7.8 -10.5,-7.8zm-63.2,-48.3c0.1,0.1 0.1,0.1 0.2,0.1c-0.3,0.2 -2.6,-0.6 -0.2,-0.1z" fill="#000000"/>
    <path id="svg_55" d="m445.216667,53.666667c-1.3,-2.5 -2.6,-5 -2.8,-7.9c0,0 0,-0.1 0,-0.1c-4.4,-2.9 -8.4,-5.6 -11.6,-7.4c-0.6,-0.4 -1.1,-0.8 -1.8,-1.2c-14.1,-8.1 -19.1,-21 -32.9,-28.2c-1.5,-1.2 -3.1,-2.5 -4.7,-3.9c-1.3,0.1 -2.6,0.3 -3.9,0.5c-5.2,0.8 -10.5,1.3 -15.7,2.1c0.6,0.7 2.6,2.6 5.9,4.4c9.2,6.9 25.7,19.4 27.6,21.2c5.7,5.5 12.6,11.5 19.3,16.1c2.1,1.4 3.6,2.5 4.9,3.4c0.8,1.7 1.4,2.9 1.4,2.9s2.5,2.5 5.9,5.5c0.3,0.4 0.5,0.8 0.8,1.2c0,-0.2 0,-0.4 0,-0.6c2.5,2.2 5.5,4.5 8.3,6.4c0.5,-0.4 1,-0.8 1.6,-1.2c0,-3.1 0,-6.3 0,-9.4c-1.1,-1.3 -1.6,-2.5 -2.3,-3.8z" fill="#000000"/>
    <path id="svg_56" d="m88.516667,199.466667c-0.9,0 -1.3,-0.5 -1.1,-1.5c0.5,-2.6 0.9,-5.2 1.3,-7.8c0.5,-2.6 0.9,-5.3 1.5,-7.9c0.4,-1.7 0.8,-3.4 1.2,-5c-0.6,-2.7 -1.3,-5.4 -2.6,-7.6c-3.6,-6.2 -8.7,-11.3 -14.3,-15.7c-1.4,3.2 -2.2,6.6 -2.2,10.3c0.3,12.5 0.5,24.9 0.5,37.4c0,2.4 0.9,3.9 2.7,5.2c0.4,0.3 0.7,0.5 1.1,0.8c5.4,4.3 11.5,5.5 18.2,4.2c1.8,-0.3 2.8,-1.3 2.6,-3c-0.1,-1.1 -0.3,-2.3 -0.8,-3.3c-1.6,-3.6 -3.9,-6.2 -8.1,-6.1z" fill="#000000"/>
    <path id="svg_57" d="m247.816667,62.066667c15.2,8.1 28.6,17.2 43.4,26.6c9.5,6 28.5,22.7 41.1,17.8c0.7,-7.9 -16.6,-12.9 -22,-16.1c-7.2,-4.3 -10.9,-8.6 -16.5,-14.5c-8.6,-9.1 -20.9,-15.6 -30.5,-21.9c-10.4,-6.9 -22,-9.1 -32.3,-16.5c-3.8,-2.7 -7.7,-4.9 -10.6,-8.2c-2.5,-2.9 -4.7,-8.2 -7.6,-12.4c-6.6,-0.1 -13.2,-0.2 -19.8,-0.1c2.4,7 4,14.1 9.5,20.1c10.3,11.1 31.6,18 45.3,25.2z" fill="#000000"/>
    <path id="svg_58" d="m187.416667,40.466667c1.4,1.4 7.6,10.7 9.7,4.4c1.6,-4.7 -3.8,-7.4 -6.1,-10.9c0.3,0.4 0.4,0.7 0,0c-1.1,-1.8 -0.5,-0.8 0,0c-0.6,-1 -1.2,-2.2 -1.7,-3.4c0.2,-0.4 0.3,-0.9 0.3,-1.4c0.1,-4.5 -0.5,-8.6 -1.8,-12.3c-3.1,0.1 -6.1,0.2 -9.2,0.3c-3.1,0.2 -6.3,0.4 -9.4,0.7c-2.7,0.2 -5.3,0.5 -7.9,0.8c4.4,2.9 8.8,5.7 13.3,8.5c4,4.5 8.3,8.9 12.8,13.3z" fill="#000000"/>
    <path id="svg_59" d="m226.216667,24.666667c6.2,5.6 11.9,8.7 18.7,13c11.9,7.5 24.5,12.5 36.9,19.1c27.2,14.5 46,37.6 67.2,59.3c18.5,19 34.4,37.1 52.8,53.9c7,6.3 11.7,13.6 17,21c-0.2,-1.2 -0.5,-2.3 -0.7,-3.5c-0.6,-3.7 -1.4,-7.4 -4.3,-10.2c-0.2,-0.2 -0.3,-0.4 -0.4,-0.6c-2.2,-3.3 -4.4,-6.6 -6.5,-9.9c-3.2,-5.1 -6.3,-10.2 -9.5,-15.4c-1.9,-3.2 -3.6,-6.6 -5.8,-9.7c-4.7,-6.5 -9.6,-12.9 -14.5,-19.3c-0.5,-0.7 -1.2,-1.4 -1.4,-2.2c-0.3,-1.9 -0.5,-3.8 -0.5,-5.7c0,-2.3 0.3,-4.6 0.2,-6.9c-0.2,-3.6 0.2,-7.1 1.1,-10.6c0.9,-3.6 1.9,-7.2 3.1,-10.8c0.5,-1.4 1.2,-2.8 2,-4.1c1.3,-2.4 3.4,-3.6 6.2,-3.8c4.3,-0.4 8.6,-1.9 13,-1.5c-7.5,-9.6 -18,-20.4 -28.7,-27.3c-7.7,-4.9 -22.3,-6.6 -27.3,-15.2c6.6,0.9 28.2,16.2 34.5,12.7c1.5,-3.8 -40,-30.4 -45.2,-34.8c0,0 0,0 0,0c1.5,1.4 0.7,0.6 0,0c0,0 0,0 -0.1,0c-3.3,-0.3 -6.3,0.3 -9.3,2c-3.2,1.8 -6.6,3.2 -9.9,4.7c-1.9,0.9 -3.7,2.1 -5.7,2.6c-1.2,0.3 -2.3,0.6 -3.5,0.9c7.9,5.8 15.6,11.8 23.5,17.1c8.9,6 19.4,10.4 28.9,15.4c3.1,1.7 22.8,10.3 23,13.4c-0.1,0.4 -0.9,0.3 -2.2,0c-11.2,-2.8 -61.1,-28.4 -66.6,-32c-5,-3.2 -8.3,-6.5 -14.3,-9.3c-1.9,-0.9 -3.7,-1.9 -5.5,-2.9c-7.2,0.5 -14.4,0.5 -21.6,-1.4c-2.1,-0.6 -4.3,-0.9 -6.5,-1.2c-2.2,-0.4 -4.5,-0.8 -6.7,-1.2c1.2,0.9 2.3,1.8 3.3,2.7c7.8,7 14.6,12.2 23.3,17.5c9.1,5.5 18.7,8.6 27.2,14.8c7.8,5.8 13,12 20.7,18.3c1.2,0.9 2.3,1.8 3.5,2.7c4.8,8.4 10.7,15.9 17.1,23c-5,-3.3 -9.9,-6.7 -14.5,-10.5c-10.6,-8.6 -18,-21.1 -28.8,-28.4c-22.5,-15.2 -55.9,-22.1 -74.7,-43c-1.7,-0.1 -3.5,-0.2 -5.2,-0.2c-3.4,-0.1 -6.9,-0.1 -10.3,-0.2c2.4,2.9 4.7,5.6 7,7.7zm116.1,7.3c-2.4,0 -16.4,-10 -18.4,-13.2c-0.3,0.1 -0.5,-0.1 -0.4,-0.8c1.2,-0.6 1.6,-0.5 1.6,-0.3c6.3,0 18.5,12.5 17.2,14.3z" fill="#000000"/>
   </g>
  </g>
 </g>
</svg>
